<?xml version="1.0" standalone="no"?>
<!DOCTYPE svg PUBLIC "-//W3C//DTD SVG 20010904//EN"
 "http://www.w3.org/TR/2001/REC-SVG-20010904/DTD/svg10.dtd">
<svg version="1.0" xmlns="http://www.w3.org/2000/svg"
 width="512.000000pt" height="512.000000pt" viewBox="0 0 512.000000 512.000000"
 preserveAspectRatio="xMidYMid meet">
<metadata>
Created by potrace 1.11, written by Peter Selinger 2001-2013
</metadata>
<g transform="translate(0.000000,512.000000) scale(0.100000,-0.100000)"
fill="#000000" stroke="none">
<path d="M2355 5030 c-145 -17 -176 -23 -274 -47 -229 -55 -424 -136 -612
-253 -46 -29 -89 -53 -96 -53 -7 0 -10 -4 -7 -9 3 -4 -3 -11 -13 -15 -24 -9
-171 -134 -258 -219 -318 -313 -530 -722 -594 -1149 -34 -220 -19 -518 35
-740 43 -174 138 -413 217 -545 50 -84 120 -194 127 -200 3 -3 36 -45 74 -93
40 -52 383 -403 837 -858 l769 -770 748 748 c795 797 801 803 877 903 28 36
53 66 58 68 4 2 7 7 7 12 0 4 25 45 56 91 156 236 294 611 319 868 3 31 8 76
10 101 9 87 4 287 -10 377 -24 163 -48 261 -95 395 -177 504 -557 936 -1038
1177 -131 67 -374 155 -454 166 -15 2 -35 6 -45 9 -22 6 -63 14 -123 22 -25 3
-49 8 -53 11 -14 8 -397 11 -462 3z m415 -483 c159 -28 217 -42 325 -79 384
-132 735 -448 907 -818 81 -174 121 -309 146 -495 9 -67 9 -326 0 -395 -70
-534 -403 -1000 -881 -1234 -51 -24 -112 -52 -137 -61 -71 -25 -196 -63 -227
-68 -15 -3 -59 -11 -98 -18 -74 -14 -368 -18 -445 -7 -204 31 -340 72 -508
155 -351 172 -607 447 -773 828 -5 11 -10 27 -11 35 -2 8 -6 17 -10 20 -16 12
-67 220 -85 350 -9 63 -9 311 -1 395 9 80 49 252 80 340 112 320 341 611 630
801 195 129 467 230 668 249 35 3 66 8 68 10 5 5 319 -2 352 -8z"/>
<path d="M2373 3762 l-293 -2 0 -173 c-1 -590 1 -1501 3 -1503 5 -5 61 -6 225
-5 l172 1 0 279 0 279 178 5 c104 3 196 11 222 19 129 39 266 150 330 269 42
78 58 131 66 226 19 215 -101 435 -292 535 -125 66 -198 74 -611 70z m433
-428 c46 -34 67 -70 70 -119 4 -76 -34 -140 -99 -164 -16 -6 -89 -11 -163 -11
l-134 0 0 161 0 160 149 -3 c133 -3 153 -5 177 -24z"/>
</g>
</svg>
